<?xml version="1.0" encoding="utf-8"?>
<!-- Generator: Adobe Illustrator 23.0.1, SVG Export Plug-In . SVG Version: 6.00 Build 0)  -->
<svg version="1.1" id="Layer_1" xmlns="http://www.w3.org/2000/svg" xmlns:xlink="http://www.w3.org/1999/xlink" x="0px" y="0px"
	 viewBox="0 0 1000 1000" style="enable-background:new 0 0 1000 1000;" xml:space="preserve">
<style type="text/css">
	.st0{fill:#1ED760;}
	.st1{fill:#D0D2D3;}
</style>
<path class="st1" d="M178.9,362.5C103,362.5,41.4,424,41.4,500c0,76,61.6,137.5,137.5,137.5c76,0,137.5-61.6,137.5-137.5
	C316.5,424,254.9,362.5,178.9,362.5C178.9,362.5,178.9,362.5,178.9,362.5z M242,560.8c-2.5,4-7.8,5.3-11.8,2.8
	c-32.3-19.7-72.9-24.2-120.8-13.3c-4.6,1.1-9.2-1.8-10.3-6.5c-1.1-4.6,1.8-9.2,6.4-10.3c52.4-12,97.3-6.8,133.6,15.3
	C243.2,551.5,244.5,556.8,242,560.8z M258.9,523.4c-3.1,5-9.7,6.6-14.7,3.5c-37-22.7-93.3-29.3-137.1-16c-5.7,1.7-11.7-1.5-13.4-7.1
	c-1.7-5.7,1.5-11.6,7.2-13.4c50-15.2,112.1-7.8,154.5,18.3C260.4,511.7,262,518.3,258.9,523.4L258.9,523.4z M260.3,484.4
	c-44.3-26.3-117.5-28.8-159.8-15.9c-6.8,2.1-14-1.8-16-8.6c-2.1-6.8,1.8-14,8.6-16c48.6-14.7,129.4-11.9,180.4,18.4
	c6.1,3.6,8.1,11.5,4.5,17.6C274.3,486,266.4,488,260.3,484.4L260.3,484.4z M415.6,489.4c-23.7-5.7-28-9.6-28-18
	c0-7.9,7.4-13.2,18.5-13.2c10.7,0,21.3,4,32.5,12.3c0.3,0.3,0.8,0.4,1.2,0.3c0.4-0.1,0.8-0.3,1-0.6l11.6-16.3
	c0.5-0.7,0.3-1.6-0.3-2.1c-13.3-10.6-28.2-15.8-45.6-15.8c-25.6,0-43.6,15.4-43.6,37.4c0,23.6,15.5,32,42.2,38.4
	c22.7,5.2,26.6,9.6,26.6,17.5c0,8.7-7.8,14.1-20.2,14.1c-13.9,0-25.2-4.7-37.8-15.6c-0.3-0.3-0.7-0.4-1.1-0.4
	c-0.4,0-0.8,0.2-1.1,0.5l-13,15.5c-0.5,0.7-0.5,1.6,0.1,2.2c14.7,13.1,32.8,20.1,52.4,20.1c27.6,0,45.5-15.1,45.5-38.5
	C456.4,507.4,444.6,496.5,415.6,489.4C415.7,489.5,415.6,489.4,415.6,489.4z M518.9,466c-12,0-21.8,4.7-29.9,14.4v-10.9
	c0-0.9-0.7-1.6-1.5-1.6h-21.3c-0.9,0-1.5,0.7-1.5,1.6v120.9c0,0.9,0.7,1.6,1.5,1.6h21.3c0.9,0,1.5-0.7,1.5-1.6v-38.2
	c8.1,9.1,17.9,13.5,29.9,13.5c22.3,0,44.8-17.1,44.8-49.9C563.7,483.1,541.1,466,518.9,466L518.9,466L518.9,466z M538.9,515.9
	c0,16.7-10.3,28.3-25,28.3c-14.5,0-25.5-12.2-25.5-28.3c0-16.1,11-28.3,25.5-28.3C528.4,487.6,538.9,499.5,538.9,515.9L538.9,515.9z
	 M621.4,466c-28.7,0-51.1,22.1-51.1,50.2c0,27.9,22.3,49.7,50.8,49.7c28.8,0,51.3-22,51.3-50.1C672.3,487.9,649.9,466,621.4,466
	L621.4,466z M621.4,544.4c-15.2,0-26.7-12.3-26.7-28.5c0-16.3,11.1-28.1,26.4-28.1c15.3,0,26.9,12.2,26.9,28.5
	C647.9,532.6,636.8,544.4,621.4,544.4z M733.5,468h-23.4V444c0-0.9-0.7-1.6-1.5-1.6h-21.3c-0.9,0-1.6,0.7-1.6,1.6V468h-10.2
	c-0.9,0-1.5,0.7-1.5,1.6v18.3c0,0.9,0.7,1.6,1.5,1.6h10.2v47.3c0,19.1,9.5,28.8,28.3,28.8c7.6,0,13.9-1.6,19.9-5
	c0.5-0.3,0.8-0.8,0.8-1.3v-17.4c0-0.5-0.3-1-0.7-1.3c-0.5-0.3-1-0.3-1.5-0.1c-4.1,2.1-8,3-12.5,3c-6.8,0-9.9-3.1-9.9-10v-44h23.4
	c0.9,0,1.5-0.7,1.5-1.6v-18.3C735.1,468.7,734.4,468,733.5,468L733.5,468L733.5,468z M815,468v-2.9c0-8.6,3.3-12.5,10.7-12.5
	c4.4,0,8,0.9,12,2.2c0.5,0.2,1,0.1,1.4-0.2c0.4-0.3,0.6-0.8,0.6-1.3v-17.9c0-0.7-0.4-1.3-1.1-1.5c-4.2-1.3-9.6-2.5-17.7-2.5
	c-19.6,0-30,11.1-30,32v4.5h-10.2c-0.9,0-1.6,0.7-1.6,1.6v18.4c0,0.9,0.7,1.6,1.6,1.6H791v72.9c0,0.9,0.7,1.6,1.6,1.6h21.3
	c0.9,0,1.6-0.7,1.6-1.6v-72.9h19.9l30.4,72.9c-3.4,7.7-6.8,9.2-11.5,9.2c-3.7,0-7.7-1.1-11.7-3.3c-0.4-0.2-0.8-0.2-1.2-0.1
	c-0.4,0.1-0.8,0.4-0.9,0.8l-7.2,15.8c-0.3,0.8,0,1.6,0.7,2c7.5,4.1,14.3,5.8,22.7,5.8c15.7,0,24.4-7.3,32-27l36.9-95.3
	c0.2-0.5,0.1-1-0.2-1.4c-0.3-0.4-0.8-0.7-1.3-0.7h-22.1c-0.7,0-1.3,0.4-1.5,1l-22.7,64.8l-24.8-64.8c-0.2-0.6-0.8-1-1.4-1L815,468
	L815,468L815,468z M767.8,468h-21.3c-0.9,0-1.6,0.7-1.6,1.6v92.8c0,0.9,0.7,1.6,1.6,1.6h21.3c0.9,0,1.6-0.7,1.6-1.6v-92.8
	C769.3,468.7,768.6,468,767.8,468C767.8,468,767.8,468,767.8,468z M757.3,425.7c-8.4,0-15.3,6.8-15.3,15.2c0,8.4,6.8,15.3,15.3,15.3
	c8.4,0,15.2-6.8,15.2-15.3C772.5,432.5,765.7,425.7,757.3,425.7z M943.6,497.8c-8.4,0-15-6.8-15-15c0-8.2,6.6-15,15-15s15,6.8,15,15
	C958.6,490.9,952,497.8,943.6,497.8z M943.6,469.3c-7.7,0-13.5,6.1-13.5,13.6c0,7.5,5.8,13.5,13.4,13.5c7.7,0,13.5-6.1,13.5-13.6
	C957,475.3,951.3,469.3,943.6,469.3z M947,484.3l4.2,5.9h-3.6l-3.8-5.4h-3.3v5.4h-3v-15.7h7c3.7,0,6.1,1.9,6.1,5
	C950.6,482.1,949.1,483.6,947,484.3L947,484.3z M944.4,477.2h-3.9v5h3.9c1.9,0,3.1-1,3.1-2.5C947.5,478,946.4,477.2,944.4,477.2z"/>
</svg>
